<?xml version="1.0" standalone="no"?><!DOCTYPE svg PUBLIC "-//W3C//DTD SVG 1.1//EN" "http://www.w3.org/Graphics/SVG/1.1/DTD/svg11.dtd"><svg fill="#666666"  t="1508469945844" class="icon" style="" viewBox="0 0 1024 1024" version="1.1" xmlns="http://www.w3.org/2000/svg" p-id="5950" xmlns:xlink="http://www.w3.org/1999/xlink" width="200" height="200"><defs><style type="text/css"></style></defs><path d="M804.6933333333334 48.53333333333336c-117.44 32-234.98666666666668 64.10666666666667-352.4266666666666 96.10666666666665-17.066666666666666 32-34.13333333333333 64.10666666666667-51.306666666666665 96.10666666666665-129.81333333333333-4.266666666666667-200.10666666666665 51.946666666666665-237.12 134.61333333333334-46.93333333333333 46.93333333333333-93.97333333333333 93.97333333333333-141.01333333333332 141.01333333333332C142.72000000000003 608.96 197.33333333333331 785.8133333333334 394.55999999999995 778.9866666666667 477.5466666666666 922.6666666666667 644.6933333333333 919.8933333333333 811.0933333333332 977.5999999999999c63.67999999999999-101.22666666666667 119.78666666666666-374.82666666666665 51.306666666666665-454.9333333333333 10.133333333333333-41.919999999999995 42.559999999999995-64.95999999999998 51.306666666666665-96.10666666666665C921.92 396.8 819.6266666666667 61.75999999999999 804.6933333333334 48.53333333333336zM413.76 253.54666666666668c83.30666666666666-21.333333333333332 166.61333333333332-42.77333333333333 249.92000000000002-64.10666666666667l19.2 0c-51.306666666666665 87.57333333333332-102.50666666666665 175.14666666666665-153.81333333333333 262.72-43.733333333333334 39.57333333333334-246.50666666666666 14.933333333333334-320.4266666666666 12.8C277.0133333333333 394.55999999999995 345.38666666666666 324.05333333333334 413.76 253.54666666666668zM208.74666666666667 561.1733333333334L522.6666666666666 561.1733333333334c53.44 91.83999999999999 106.77333333333333 183.67999999999998 160.2133333333333 275.52C453.65333333333336 799.6800000000001 321.49333333333334 711.1466666666668 208.74666666666667 561.1733333333334zM766.1866666666667 791.7866666666666l-6.4 0c-51.306666666666665-89.70666666666666-102.50666666666665-179.41333333333333-153.81333333333333-269.12 51.306666666666665-96.10666666666665 102.50666666666665-192.2133333333333 153.81333333333333-288.32C874.24 429.0133333333333 802.3466666666668 588.0533333333333 766.1866666666667 791.7866666666666z" p-id="5951"></path></svg>