<?xml version="1.0" standalone="no"?><!DOCTYPE svg PUBLIC "-//W3C//DTD SVG 1.1//EN" "http://www.w3.org/Graphics/SVG/1.1/DTD/svg11.dtd"><svg fill="#FF6600" t="1508469940817" class="icon" style="" viewBox="0 0 1024 1024" version="1.1" xmlns="http://www.w3.org/2000/svg" p-id="5833" xmlns:xlink="http://www.w3.org/1999/xlink" width="200" height="200"><defs><style type="text/css"></style></defs><path d="M935.38950875 357.3914871875q21.8830528125 0 37.1060465625 13.7958375t15.22299375 33.776016562500004l0 280.67394375q0 19.0287421875-15.22299375 32.8245796875t-37.1060465625 13.7958375l-17.125867500000002 0q-21.8830528125 0-37.1060465625-13.7958375t-15.22299375-32.8245796875l0-280.67394375q0-19.9801790625 15.22299375-33.776016562500004t37.1060465625-13.7958375l17.125867500000002 0zM163.77402218749995 357.3914871875q21.8830528125 0 36.1546096875 13.7958375t14.271556875 33.776016562500004l0 280.67394375q0 19.0287421875-14.271556875 32.8245796875t-36.1546096875 13.7958375l-17.125867500000002 0q-21.8830528125 0-37.1060465625-13.7958375t-15.22299375-32.8245796875l0-280.67394375q0-19.9801790625 15.22299375-33.776016562500004t37.1060465625-13.7958375l17.125867500000002 0zM688.9673 136.65808062500003q17.125867500000002 7.611496875 35.67889125 20.9316159375t35.67889125 31.397424375 29.970268125 39.4846396875 18.553023749999998 45.193261875l-540.4162715625 0q15.22299375-50.4261665625 48.0475734375-82.7750278125t66.12487875-51.3776034375l-48.523291875-76.1149678125q-1.9028737500000001-1.9028737500000001-0.47571843750000004-7.1357784375t9.990089062500001-10.941526875q7.611496875-6.6600600000000005 14.271556875-6.1843415625t8.562933750000001 2.378593125l49.47472875 78.0178415625q26.6402390625-12.3686821875 56.13478875-19.0287421875t60.8919740625-6.6600600000000005q64.6977225 0 120.83251125000001 26.6402390625l50.4261665625-78.969279375q1.9028737500000001-1.9028737500000001 7.1357784375-1.9028737500000001t15.6987121875 5.7086221875000005q9.514370625 4.7571853125 10.941526875 8.562933750000001t-0.47571843750000004 5.7086221875000005zM423.51635 218.48167156249997q12.3686821875 0 20.9316159375-8.562933750000001t8.562933750000001-20.9316159375-8.562933750000001-20.9316159375-20.9316159375-8.562933750000001-20.9316159375 8.562933750000001-8.562933750000001 20.9316159375 8.562933750000001 20.9316159375 20.9316159375 8.562933750000001zM657.569875625 214.67592312500005q12.3686821875 0 20.9316159375-8.562933750000001t8.562933750000001-20.9316159375-8.562933750000001-20.9316159375-20.9316159375-8.562933750000001-20.9316159375 8.562933750000001-8.562933750000001 20.9316159375 8.562933750000001 20.9316159375 20.9316159375 8.562933750000001zM808.848374375 333.6055596875l0.9514368750000001 428.1466940625q0 20.9316159375-13.7958375 35.2031728125t-33.776016562500004 14.271556875l-13.3201190625 0 0 133.20119343750002q0 19.0287421875-13.7958375 33.300298125000005t-33.776016562500004 14.271556875l-27.5916759375 0q-19.0287421875 0-32.8245796875-14.271556875t-13.7958375-33.300298125000005l0-133.20119343750002-175.06442625 0 0 133.20119343750002q0 19.0287421875-13.7958375 33.300298125000005t-33.776016562500004 14.271556875l-27.5916759375 0q-19.0287421875 0-32.8245796875-14.271556875t-13.7958375-33.300298125000005l0-133.20119343750002-10.4658084375 0q-19.9801790625 0-33.776016562500004-14.271556875t-13.7958375-35.2031728125l0-428.1466940625 536.610523125 0z" p-id="5834"></path></svg>