<?xml version="1.0" standalone="no"?><!DOCTYPE svg PUBLIC "-//W3C//DTD SVG 1.1//EN" "http://www.w3.org/Graphics/SVG/1.1/DTD/svg11.dtd"><svg t="1508469937865" fill="#FF6600" class="icon" style="" viewBox="0 0 1024 1024" version="1.1" xmlns="http://www.w3.org/2000/svg" p-id="5716" xmlns:xlink="http://www.w3.org/1999/xlink" width="200" height="200"><defs><style type="text/css"></style></defs><path d="M822.1924999999999 663.2496874999999c26.25 37.5 56.25 61.24968749999999 91.2496875 72.4996875-15 46.24968749999999-38.74968749999999 93.75-70.0003125 142.5-49.99968749999999 75-98.7496875 112.5-146.25 112.5-17.5003125 0-45-6.250312499999999-79.9996875-18.75-32.5003125-12.4996875-61.24968749999999-18.75-86.25-18.75-25.0003125 0-51.2503125 6.250312499999999-81.2503125 18.75-31.2496875 12.4996875-56.25 18.75-76.2496875 18.75-57.49968749999999 0-115.0003125-48.75-171.2503125-147.4996875-56.25-96.2503125-85.0003125-191.25-85.0003125-286.24968750000005 0-87.4996875 21.2503125-157.5 63.75-213.75 43.7503125-55.0003125 97.5-82.5 162.4996875-82.5 13.7503125 0 30 1.2496875 47.5003125 4.9996875 17.5003125 3.75 34.99968749999999 10.0003125 53.74968749999999 19.9996875 19.9996875 11.25 36.2503125 18.75 48.75 22.5 12.4996875 3.75 22.5 6.250312499999999 30 6.250312499999999 8.7496875 0 21.2503125-2.5003124999999997 38.74968749999999-6.250312499999999 17.5003125-3.75 34.99968749999999-11.25 52.5-21.2503125 18.75-10.0003125 34.99968749999999-17.5003125 48.75-23.7496875 13.7503125-4.9996875 27.4996875-7.5 41.25-7.5 45 0 86.25 12.4996875 121.2496875 36.2503125 18.75 12.4996875 38.74968749999999 31.2496875 58.7503125 57.49968749999999-30 26.25-51.2503125 48.75-64.9996875 67.5-25.0003125 36.2503125-37.5 75-37.5 117.4996875 1.2496875 48.75 13.7503125 91.2496875 40.0003125 128.7496875v0zM628.4421875 212c-22.5 21.2503125-43.7503125 34.99968749999999-61.24968749999999 41.25-6.250312499999999 2.5003124999999997-15 3.75-25.0003125 4.9996875-10.0003125 1.2496875-21.2503125 2.5003124999999997-33.75 3.75 1.2496875-56.25 15-105 45-146.25s75-68.7496875 142.5-83.7496875c1.2496875 6.250312499999999 2.5003124999999997 11.25 2.5003124999999997 13.7503125v10.0003125c0 23.7496875-4.9996875 48.75-16.2496875 78.75-12.4996875 28.7503125-30 53.74968749999999-53.74968749999999 77.5003125z" p-id="5717"></path></svg>